<svg width="64" height="64" viewBox="0 0 64 64" fill="none" xmlns="http://www.w3.org/2000/svg">
<rect width="64" height="64" rx="8" fill="#607757"/>
<path fill-rule="evenodd" clip-rule="evenodd" d="M38.9999 19.4752C39.5259 18.4987 40.4969 17.8815 41.5829 18.0191C43.0589 18.207 44.2169 19.845 43.9659 21.5531C43.5619 24.2913 41.4889 26.228 38.9999 27.6794C36.5109 26.228 34.4369 24.2913 34.0339 21.5531C33.7829 19.8439 34.9399 18.207 36.4169 18.0191C37.5029 17.8826 38.4739 18.4987 38.9999 19.4752ZM28.9999 31.1666C30.4529 29.3758 31.6939 28.2861 33.6489 28.5357C36.3069 28.8752 38.3889 32.4127 37.9379 35.4997C37.2129 40.4512 33.4799 43.3749 28.9999 46C24.5199 43.3749 20.7869 40.4524 20.0619 35.4997C19.6099 32.4115 21.6929 28.8741 24.3509 28.5357C26.3059 28.2861 27.4669 29.3758 28.9999 31.1666Z" fill="#FFD900"/>
</svg>
