<svg width="64" height="64" viewBox="0 0 64 64" fill="none" xmlns="http://www.w3.org/2000/svg">
<rect width="64" height="64" rx="8" fill="#607757"/>
<path fill-rule="evenodd" clip-rule="evenodd" d="M20.3345 21.5H43.6655C44.9547 21.5 46 22.5453 46 23.8345V26.1667H18V23.8345C18 22.5453 19.0453 21.5 20.3345 21.5ZM20.3298 42.5C19.043 42.5 18 41.457 18 40.1702V30.8333H46V40.1702C46 41.457 44.957 42.5 43.6702 42.5H20.3298ZM30.8333 36.6667C30.8333 35.6995 30.0493 34.9167 29.0833 34.9167C28.1173 34.9167 27.3333 35.6995 27.3333 36.6667C27.3333 37.6338 28.1173 38.4167 29.0833 38.4167C30.0493 38.4167 30.8333 37.6338 30.8333 36.6667ZM23.25 34.9167C24.216 34.9167 25 35.6995 25 36.6667C25 37.6338 24.216 38.4167 23.25 38.4167C22.284 38.4167 21.5 37.6338 21.5 36.6667C21.5 35.6995 22.284 34.9167 23.25 34.9167Z" fill="#FFD900"/>
</svg>
