<svg width="64" height="64" viewBox="0 0 64 64" fill="none" xmlns="http://www.w3.org/2000/svg">
<rect width="64" height="64" rx="8" fill="#607757"/>
<path fill-rule="evenodd" clip-rule="evenodd" d="M35.899 23.5872L36.3914 23.8333C37.2804 24.2778 37.8334 25.1715 37.8334 26.1667C37.8334 26.8118 38.356 27.3333 39 27.3333C39.644 27.3333 40.1667 26.8118 40.1667 26.1667C40.1667 24.2825 39.1202 22.5885 37.4344 21.7462L36.942 21.5C36.053 21.0555 35.5 20.1618 35.5 19.1667C35.5 18.5215 34.9774 18 34.3334 18C33.6894 18 33.1667 18.5215 33.1667 19.1667C33.1667 21.0508 34.2132 22.7448 35.899 23.5872ZM23.8334 29.6667C21.2597 29.6667 19.1667 31.7597 19.1667 34.3333C19.1667 36.907 21.2597 39 23.8334 39H27.7405C29.543 40.4572 31.8355 41.3333 34.3334 41.3333C40.1329 41.3333 44.8334 36.6328 44.8334 30.8333V29.6667H23.8334ZM23.8334 36.6667C22.5465 36.6667 21.5 35.6202 21.5 34.3333C21.5 33.0465 22.5465 32 23.8334 32H23.9022C24.0924 33.7138 24.692 35.3028 25.6044 36.6667H23.8334ZM23.8334 44.8333C23.8334 44.1893 24.3549 43.6667 25 43.6667H43.6667C44.3119 43.6667 44.8334 44.1893 44.8334 44.8333C44.8334 45.4773 44.3119 46 43.6667 46H25C24.3549 46 23.8334 45.4773 23.8334 44.8333ZM29.3914 23.8333L28.899 23.5872C27.2132 22.7448 26.1667 21.0508 26.1667 19.1667C26.1667 18.5215 26.6894 18 27.3334 18C27.9774 18 28.5 18.5215 28.5 19.1667C28.5 20.1618 29.053 21.0555 29.942 21.5L30.4344 21.7462C32.1202 22.5885 33.1667 24.2825 33.1667 26.1667C33.1667 26.8118 32.644 27.3333 32 27.3333C31.356 27.3333 30.8334 26.8118 30.8334 26.1667C30.8334 25.1715 30.2804 24.2778 29.3914 23.8333Z" fill="#FFD900"/>
</svg>
