<svg width="64" height="64" viewBox="0 0 64 64" fill="none" xmlns="http://www.w3.org/2000/svg">
<rect width="64" height="64" rx="8" fill="#607757"/>
<path fill-rule="evenodd" clip-rule="evenodd" d="M42.5 21.5H43.6667C44.3084 21.5 44.8334 22.025 44.8334 22.6667C44.8334 23.3083 44.3084 23.8333 43.6667 23.8333H20.3334C19.6917 23.8333 19.1667 23.3083 19.1667 22.6667C19.1667 22.025 19.6917 21.5 20.3334 21.5H21.5L23.8334 18H40.1667L42.5 21.5ZM23.8334 46H40.1667L42.5 26.1667H21.5L23.8334 46ZM32 30.8333C34.5772 30.8333 36.6667 32.9228 36.6667 35.5C36.6667 38.0772 34.5772 40.1667 32 40.1667C29.4229 40.1667 27.3334 38.0772 27.3334 35.5C27.3334 32.9228 29.4229 30.8333 32 30.8333Z" fill="#FFD900"/>
</svg>
