<svg width="1920" height="36" viewBox="0 0 1920 36" fill="none" xmlns="http://www.w3.org/2000/svg">
<path d="M1920 36V6.34324L1914.34 10.5471C1911.87 12.379 1908.51 12.379 1906.04 10.5471L1893.68 1.37393C1891.21 -0.45798 1887.85 -0.457976 1885.38 1.37394L1873.02 10.5471C1870.56 12.379 1867.19 12.379 1864.73 10.5471L1852.37 1.37393C1849.9 -0.45798 1846.54 -0.457976 1844.07 1.37394L1831.71 10.5471C1829.24 12.379 1825.88 12.379 1823.41 10.5471L1811.06 1.37393C1808.59 -0.45798 1805.22 -0.457976 1802.76 1.37394L1790.4 10.5471C1787.93 12.379 1784.57 12.379 1782.1 10.5471L1769.74 1.37393C1767.28 -0.45798 1763.91 -0.457976 1761.44 1.37394L1749.09 10.5471C1746.62 12.379 1743.26 12.379 1740.79 10.5471L1728.43 1.37393C1725.96 -0.45798 1722.6 -0.457976 1720.13 1.37394L1707.77 10.5471C1705.31 12.379 1701.94 12.379 1699.48 10.5471L1687.12 1.37393C1684.65 -0.45798 1681.29 -0.457976 1678.82 1.37394L1666.46 10.5471C1663.99 12.379 1660.63 12.379 1658.16 10.5471L1645.81 1.37393C1643.34 -0.45798 1639.97 -0.457976 1637.51 1.37394L1621 13.6269L1604.49 1.37393C1602.03 -0.45798 1598.66 -0.457976 1596.19 1.37394L1583.84 10.5471C1581.37 12.379 1578.01 12.379 1575.54 10.5471L1563.18 1.37393C1560.71 -0.45798 1557.35 -0.457976 1554.88 1.37394L1542.52 10.5471C1540.06 12.379 1536.69 12.379 1534.23 10.5471L1521.87 1.37393C1519.4 -0.45798 1516.04 -0.457976 1513.57 1.37394L1501.21 10.5471C1498.74 12.379 1495.38 12.379 1492.91 10.5471L1480.56 1.37393C1478.09 -0.45798 1474.72 -0.457976 1472.26 1.37394L1459.9 10.5471C1457.43 12.379 1454.07 12.379 1451.6 10.5471L1439.24 1.37393C1436.78 -0.45798 1433.41 -0.457976 1430.94 1.37394L1418.59 10.5471C1416.12 12.379 1412.76 12.379 1410.29 10.5471L1397.93 1.37393C1395.46 -0.45798 1392.1 -0.457976 1389.63 1.37394L1377.27 10.5471C1374.81 12.379 1371.44 12.379 1368.98 10.5471L1356.62 1.37393C1354.15 -0.45798 1350.79 -0.457976 1348.32 1.37394L1335.96 10.5471C1333.49 12.379 1330.13 12.379 1327.66 10.5471L1315.31 1.37393C1312.84 -0.45798 1309.47 -0.457976 1307.01 1.37394L1294.65 10.5471C1292.18 12.379 1288.82 12.379 1286.35 10.5471L1273.99 1.37393C1271.53 -0.45798 1268.16 -0.457976 1265.69 1.37394L1253.34 10.5471C1250.87 12.379 1247.51 12.379 1245.04 10.5471L1232.68 1.37393C1230.21 -0.45798 1226.85 -0.457976 1224.38 1.37394L1212.02 10.5471C1209.56 12.379 1206.19 12.379 1203.73 10.5471L1191.37 1.37393C1188.9 -0.45798 1185.54 -0.457976 1183.07 1.37394L1170.71 10.5471C1168.24 12.379 1164.88 12.379 1162.41 10.5471L1150.06 1.37393C1147.59 -0.45798 1144.22 -0.457976 1141.76 1.37394L1129.4 10.5471C1126.93 12.379 1123.57 12.379 1121.1 10.5471L1108.74 1.37393C1106.28 -0.45798 1102.91 -0.457976 1100.44 1.37394L1088.09 10.5471C1085.62 12.379 1082.26 12.379 1079.79 10.5471L1067.43 1.37393C1064.96 -0.45798 1061.6 -0.457976 1059.13 1.37394L1046.77 10.5471C1044.31 12.379 1040.94 12.379 1038.48 10.5471L1026.12 1.37393C1023.65 -0.45798 1020.29 -0.457976 1017.82 1.37394L1005.46 10.5471C1002.99 12.379 999.631 12.379 997.163 10.5471L984.805 1.37393C982.337 -0.45798 978.975 -0.457976 976.507 1.37394L962.851 11.5107C961.058 12.8413 960 14.9523 960 17.197C960 14.9523 958.942 12.8413 957.149 11.5107L943.493 1.37393C941.025 -0.45798 937.663 -0.457976 935.195 1.37394L922.837 10.5471C920.369 12.379 917.006 12.379 914.538 10.5471L902.18 1.37393C899.712 -0.45798 896.35 -0.457976 893.882 1.37394L881.524 10.5471C879.056 12.379 875.694 12.379 873.226 10.5471L860.868 1.37393C858.4 -0.45798 855.038 -0.457976 852.57 1.37394L840.212 10.5471C837.744 12.379 834.381 12.379 831.913 10.5471L819.555 1.37393C817.087 -0.45798 813.725 -0.457976 811.257 1.37394L798.899 10.5471C796.431 12.379 793.069 12.379 790.601 10.5471L778.243 1.37393C775.775 -0.45798 772.413 -0.457976 769.945 1.37394L757.587 10.5471C755.119 12.379 751.756 12.379 749.288 10.5471L736.93 1.37393C734.462 -0.45798 731.1 -0.457976 728.632 1.37394L716.274 10.5471C713.806 12.379 710.444 12.379 707.976 10.5471L695.618 1.37393C693.15 -0.45798 689.788 -0.457976 687.32 1.37394L674.962 10.5471C672.494 12.379 669.131 12.379 666.663 10.5471L654.305 1.37393C651.837 -0.45798 648.475 -0.457976 646.007 1.37394L633.649 10.5471C631.181 12.379 627.819 12.379 625.351 10.5471L612.993 1.37393C610.525 -0.45798 607.163 -0.457976 604.695 1.37394L592.337 10.5471C589.869 12.379 586.506 12.379 584.038 10.5471L571.68 1.37393C569.212 -0.45798 565.85 -0.457976 563.382 1.37394L551.024 10.5471C548.556 12.379 545.194 12.379 542.726 10.5471L530.368 1.37393C527.9 -0.45798 524.538 -0.457976 522.07 1.37394L509.712 10.5471C507.244 12.379 503.881 12.379 501.413 10.5471L489.055 1.37393C486.587 -0.45798 483.225 -0.457976 480.757 1.37394L468.399 10.5471C465.931 12.379 462.569 12.379 460.101 10.5471L447.743 1.37393C445.275 -0.45798 441.913 -0.457976 439.445 1.37394L427.087 10.5471C424.619 12.379 421.256 12.379 418.788 10.5471L406.43 1.37393C403.962 -0.45798 400.6 -0.457976 398.132 1.37394L385.774 10.5471C383.306 12.379 379.944 12.379 377.476 10.5471L365.118 1.37393C362.65 -0.45798 359.288 -0.457976 356.82 1.37394L344.462 10.5471C341.994 12.379 338.631 12.379 336.163 10.5471L323.805 1.37393C321.337 -0.45798 317.975 -0.457976 315.507 1.37394L299 13.6269L282.493 1.37393C280.025 -0.45798 276.663 -0.457976 274.195 1.37394L261.837 10.5471C259.369 12.379 256.006 12.379 253.538 10.5471L241.18 1.37393C238.712 -0.45798 235.35 -0.457976 232.882 1.37394L220.524 10.5471C218.056 12.379 214.694 12.379 212.226 10.5471L199.868 1.37393C197.4 -0.45798 194.038 -0.457976 191.57 1.37394L179.212 10.5471C176.744 12.379 173.381 12.379 170.913 10.5471L158.555 1.37393C156.087 -0.45798 152.725 -0.457976 150.257 1.37394L137.899 10.5471C135.431 12.379 132.069 12.379 129.601 10.5471L117.243 1.37393C114.775 -0.45798 111.413 -0.457976 108.945 1.37394L96.5866 10.5471C94.1187 12.379 90.7563 12.379 88.2884 10.5471L75.9304 1.37393C73.4624 -0.45798 70.1001 -0.457976 67.6321 1.37394L55.2741 10.5471C52.8062 12.379 49.4438 12.379 46.9759 10.5471L34.6179 1.37393C32.15 -0.45798 28.7875 -0.457976 26.3196 1.37394L13.9616 10.5471C11.4937 12.379 8.1313 12.379 5.66336 10.5471L0 6.34323V36H1920Z" fill="white"/>
</svg>
